<?xml version="1.0" encoding="UTF-8"?>
<svg id="Layer_1" data-name="Layer 1" xmlns="http://www.w3.org/2000/svg" viewBox="0 0 700 700">
  <defs>
    <style>
      .cls-1 {
        fill: #3ace81;
      }
    </style>
  </defs>
  <g>
    <path class="cls-1" d="M371.98,187.19c-.18.04-.36.09-.54.14h1.1c-.18-.05-.38-.11-.56-.14Z"/>
    <path class="cls-1" d="M560.79,384.66c-7.28,35.83-24.38,66.06-50.91,89.97-27.68,24.97-60.38,37.75-97.11,37.97,22.15-6.11,42.39-17.44,60.72-33.96,27.81-25.06,45.39-56.39,52.78-93.98h34.51Z"/>
    <path class="cls-1" d="M560.82,316.26h-34.51c-7.08-37.62-24.61-69.1-52.56-94.46-18.52-16.79-38.92-28.28-61.21-34.46,36.83.2,69.64,13.12,97.57,38.45,26.68,24.2,43.72,54.61,50.71,90.47Z"/>
    <path class="cls-1" d="M347.2,444.3c-3.74,2.66-7.66,5.05-11.77,7.21-1.35.7-2.71,1.38-4.08,2.01-11.58-5.48-22.22-13.5-31.87-24.11-20.01-21.91-30-48.39-30-79.44s9.99-57.54,30-79.45c9.71-10.66,20.4-18.73,32.05-24.18,5.39,2.53,10.62,5.64,15.66,9.29-4.04,3.38-7.95,7.14-11.68,11.23-20.85,22.85-31.42,50.8-31.42,83.1s10.57,60.24,31.42,83.08c3.76,4.12,7.66,7.86,11.7,11.23Z"/>
    <path class="cls-1" d="M371.98,187.19c-.18.04-.36.09-.54.14h1.1c-.18-.05-.38-.11-.56-.14Z"/>
  </g>
  <g>
    <path class="cls-1" d="M331.99,187.19c-.18.05-.34.09-.52.14h1.08c-.18-.05-.36-.11-.56-.14ZM371.98,187.19c-.18.04-.36.09-.54.14h1.1c-.18-.05-.38-.11-.56-.14ZM331.74,512.61h-.47c.25.07.49.13.74.2.25-.05.5-.13.77-.22-.34.02-.7.02-1.04.02Z"/>
    <path class="cls-1" d="M520.79,384.66c-7.28,35.83-24.38,66.06-50.91,89.97-22.79,20.55-48.98,32.84-78.02,36.67-6.24.83-12.6,1.26-19.09,1.29,3.16-.86,6.31-1.85,9.4-2.95,18.5-6.51,35.61-16.84,51.32-31.01,6.79-6.13,13-12.64,18.57-19.52,2.61-3.2,5.07-6.51,7.41-9.87,13.14-18.96,22.07-40.48,26.8-64.59h34.51Z"/>
    <path class="cls-1" d="M520.82,316.26h-34.51c-4.62-24.61-13.73-46.58-27.29-65.94-2.35-3.36-4.85-6.65-7.5-9.87-5.36-6.54-11.29-12.76-17.78-18.66-15.85-14.38-33.08-24.86-51.7-31.46-3.13-1.11-6.29-2.12-9.51-3,6.58.04,13.01.47,19.32,1.33,29.05,3.86,55.29,16.32,78.25,37.12,26.68,24.2,43.72,54.61,50.71,90.47Z"/>
    <path class="cls-1" d="M324.83,456.26c-4.4,1.69-8.9,3.02-13.45,3.99h-.02c-5.68-1.19-11.16-2.89-16.47-5.12-3.63-1.53-7.17-3.31-10.62-5.32-8.86-5.2-17.13-11.97-24.81-20.38-20.01-21.91-30-48.39-30-79.44s9.99-57.54,30-79.45c7.78-8.52,16.18-15.41,25.18-20.6,3.45-2.01,7.01-3.76,10.66-5.28,5.23-2.16,10.62-3.83,16.23-5,4.58.95,9.08,2.26,13.45,3.94-10.66,5.66-20.51,13.45-29.5,23.3-20.85,22.85-31.42,50.8-31.42,83.1s10.57,60.24,31.42,83.08c8.93,9.8,18.73,17.54,29.34,23.19Z"/>
    <path class="cls-1" d="M331.74,512.61h-.47c.25.07.49.13.74.2.25-.05.5-.13.77-.22-.34.02-.7.02-1.04.02ZM331.99,187.19c-.18.05-.34.09-.52.14h1.08c-.18-.05-.36-.11-.56-.14ZM371.98,187.19c-.18.04-.36.09-.54.14h1.1c-.18-.05-.38-.11-.56-.14Z"/>
  </g>
  <g>
    <path class="cls-1" d="M331.99,187.19c-.18.05-.34.09-.52.14h1.08c-.18-.05-.36-.11-.56-.14ZM371.98,187.19c-.18.04-.36.09-.54.14h1.1c-.18-.05-.38-.11-.56-.14ZM331.74,512.61h-.47c.25.07.49.13.74.2.25-.05.5-.13.77-.22-.34.02-.7.02-1.04.02Z"/>
    <path class="cls-1" d="M480.79,384.66c-5.39,26.51-16.16,49.97-32.16,70.07-2.28,2.88-4.67,5.68-7.17,8.41-3.63,3.97-7.5,7.8-11.58,11.49-17.42,15.71-36.81,26.59-57.94,32.55-3.34.93-6.72,1.76-10.16,2.46-3.27.67-6.58,1.22-9.92,1.65-6.24.83-12.6,1.26-19.09,1.29,3.16-.86,6.31-1.85,9.4-2.95,3.31-1.15,6.56-2.44,9.78-3.85,2.23-.97,4.46-2.01,6.65-3.11,12.31-6.17,23.94-14.18,34.89-24.05,3.99-3.6,7.77-7.32,11.31-11.16,1.6-1.71,3.13-3.43,4.62-5.19.9-1.04,1.78-2.1,2.64-3.16,2.61-3.2,5.07-6.51,7.41-9.87,13.14-18.96,22.07-40.48,26.8-64.59h34.51Z"/>
    <path class="cls-1" d="M480.83,316.26h-34.51c-4.62-24.61-13.73-46.58-27.31-65.94-2.34-3.36-4.84-6.65-7.46-9.87-.77-.93-1.55-1.87-2.35-2.79-1.49-1.76-3.04-3.49-4.62-5.2-3.42-3.69-7.03-7.23-10.82-10.68-11.06-10.03-22.78-18.16-35.18-24.39-2.18-1.1-4.37-2.14-6.58-3.13-3.27-1.44-6.58-2.75-9.94-3.94-3.13-1.11-6.29-2.12-9.51-3,6.58.04,13.01.47,19.32,1.33,3.4.45,6.74,1.01,10.05,1.69,3.4.7,6.74,1.53,10.05,2.46,21.16,6.06,40.63,17.08,58.15,32.97,3.79,3.45,7.41,7.01,10.8,10.71,2.5,2.71,4.89,5.48,7.19,8.34,16.48,20.49,27.45,44.42,32.72,71.42Z"/>
    <path class="cls-1" d="M291.45,459.47c2.18.97,4.39,1.85,6.63,2.62-1.44.11-2.88.16-4.33.2-.67.02-1.35.02-2.01.02-13.18,0-25.44-2.41-36.81-7.19-3.63-1.53-7.19-3.31-10.64-5.32-8.88-5.2-17.15-11.97-24.81-20.38-19.99-21.91-30-48.39-30-79.44s10.01-57.54,30-79.45c7.77-8.52,16.16-15.41,25.18-20.6,3.45-2.01,7.01-3.76,10.66-5.28,11.27-4.67,23.4-7.01,36.42-7.01.77,0,1.55,0,2.32.02,1.37.04,2.71.09,4.04.2-2.1.72-4.17,1.53-6.22,2.43-13.32,5.77-25.49,14.67-36.38,26.6-20.85,22.85-31.42,50.8-31.42,83.1s10.57,60.24,31.42,83.08c10.77,11.81,22.79,20.64,35.95,26.41Z"/>
    <path class="cls-1" d="M331.74,512.61h-.47c.25.07.49.13.74.2.25-.05.5-.13.77-.22-.34.02-.7.02-1.04.02ZM371.98,187.19c-.18.04-.36.09-.54.14h1.1c-.18-.05-.38-.11-.56-.14ZM331.99,187.19c-.18.05-.34.09-.52.14h1.08c-.18-.05-.36-.11-.56-.14Z"/>
  </g>
  <g>
    <path class="cls-1" d="M331.99,187.19c-.18.05-.34.09-.52.14h1.08c-.18-.05-.36-.11-.56-.14ZM331.74,512.61h-.47c.25.07.49.13.74.2.25-.05.5-.13.77-.22-.34.02-.7.02-1.04.02Z"/>
    <path class="cls-1" d="M394.33,384.66h46.47c-5.39,26.51-16.16,49.97-32.16,70.07-1.94,2.44-3.95,4.84-6.06,7.17-.36.41-.74.83-1.11,1.24-1.13,1.24-2.3,2.48-3.49,3.7-2.59,2.66-5.28,5.27-8.09,7.78-11.79,10.62-24.48,19.04-38,25.22-2.19,1.01-4.42,1.96-6.67,2.84-4.33,1.73-8.75,3.22-13.27,4.49-3.34.93-6.72,1.76-10.16,2.46-3.27.67-6.58,1.22-9.92,1.65-6.56.88-13.28,1.31-20.13,1.31h-.49c-27.18-.09-52.72-7.33-75.91-21.54-23.4-14.31-42.14-34.23-55.69-59.18-13.59-25-20.47-52.56-20.47-81.92s6.88-56.84,20.47-81.68c13.55-24.81,32.3-44.72,55.71-59.19,23.26-14.38,48.86-21.71,76.09-21.77h.29c6.85,0,13.55.43,20.13,1.33,3.38.43,6.74,1.01,10.05,1.69,3.4.7,6.74,1.53,10.05,2.46,4.53,1.31,8.99,2.82,13.36,4.58,2.21.88,4.4,1.82,6.58,2.84,13.57,6.26,26.33,14.78,38.22,25.54,2.62,2.39,5.18,4.84,7.6,7.35,1.1,1.1,2.16,2.23,3.2,3.36.49.52.95,1.04,1.42,1.56,2,2.21,3.92,4.48,5.77,6.78,16.48,20.49,27.45,44.42,32.72,71.42h-46.05c-6.65-23.82-19.13-43.72-37.12-59.19-.58-.49-1.13-.97-1.71-1.46-1.46-1.19-2.91-2.32-4.39-3.43-4.37-3.25-8.9-6.13-13.55-8.59-2.14-1.13-4.3-2.19-6.49-3.15-2.14-.95-4.31-1.8-6.51-2.59-4.37-1.55-8.84-2.79-13.43-3.69-2.03-.41-4.08-.75-6.15-1.02-2.25-.31-4.51-.52-6.81-.68-2.26-.14-4.57-.22-6.88-.22-10.28,0-20.1,1.4-29.41,4.21-3.56,1.06-7.03,2.34-10.44,3.83-13.32,5.77-25.49,14.67-36.38,26.6-20.85,22.85-31.42,50.8-31.42,83.1s10.57,60.24,31.42,83.08c10.77,11.81,22.79,20.64,35.95,26.41,3.4,1.51,6.88,2.8,10.43,3.88,9.44,2.89,19.4,4.35,29.86,4.35,2.19,0,4.39-.07,6.56-.22,2.26-.14,4.53-.38,6.78-.68,2.12-.27,4.21-.63,6.29-1.06,4.49-.9,8.92-2.12,13.25-3.69,2.26-.77,4.49-1.65,6.72-2.62,2.21-.95,4.39-2,6.54-3.13.02,0,.02-.02.04-.02,4.8-2.52,9.37-5.34,13.68-8.5,1.51-1.08,2.98-2.23,4.44-3.4,6.87-5.55,13.05-11.97,18.48-19.16,9.04-11.94,15.69-25.56,19.81-40.57Z"/>
    <path class="cls-1" d="M331.99,187.19c-.18.05-.34.09-.52.14h1.08c-.18-.05-.36-.11-.56-.14ZM331.74,512.61h-.47c.25.07.49.13.74.2.25-.05.5-.13.77-.22-.34.02-.7.02-1.04.02Z"/>
  </g>
</svg>